<?xml version="1.0" encoding="UTF-8"?><svg id="a" xmlns="http://www.w3.org/2000/svg" viewBox="0 0 900 900"><defs><style>.b{fill:#9d6fec;}.c{fill:#f2e350;}.d{fill:#e97b7d;}.e{fill:#252526;}.f{fill:#52ef8b;}.g{fill:#448ae8;}.h{opacity:.27;}</style></defs><rect class="e" width="900" height="900" rx="130.35" ry="130.35"/><g class="h"><rect x="237.78" y="56.28" width="119.88" height="19.76" rx="8.92" ry="8.92"/><rect x="363.43" y="56.28" width="50.66" height="19.76" rx="8.92" ry="8.92"/><rect x="421.36" y="56.28" width="94.3" height="19.76" rx="8.92" ry="8.92"/><rect x="167.06" y="90.61" width="56.68" height="19.76" rx="8.92" ry="8.92"/><rect x="228.75" y="90.61" width="82.26" height="19.76" rx="8.92" ry="8.92"/><rect x="315.28" y="90.61" width="194.36" height="19.76" rx="8.92" ry="8.92"/><rect x="127.94" y="124.95" width="99.56" height="19.76" rx="8.92" ry="8.92"/><rect x="235.53" y="124.95" width="209.41" height="19.76" rx="8.92" ry="8.92"/><rect x="449.95" y="124.95" width="54.42" height="19.76" rx="8.92" ry="8.92"/><rect x="107.62" y="159.28" width="396.75" height="19.76" rx="8.92" ry="8.92"/><rect x="96.34" y="193.61" width="45.39" height="19.76" rx="8.92" ry="8.92"/><rect x="147" y="193.61" width="97.81" height="19.76" rx="8.92" ry="8.92"/><rect x="121.42" y="227.95" width="100.06" height="19.76" rx="8.92" ry="8.92"/><rect x="87.56" y="227.95" width="28.59" height="19.76" rx="8.92" ry="8.92"/><rect x="353.15" y="227.95" width="40.63" height="19.76" rx="8.92" ry="8.92"/><rect x="396.03" y="227.95" width="46.65" height="19.76" rx="8.92" ry="8.92"/><rect x="444.93" y="227.95" width="40.63" height="19.76" rx="8.92" ry="8.92"/><rect x="329.82" y="193.62" width="150.47" height="19.76" rx="8.92" ry="8.92"/><rect x="84.3" y="262.28" width="70.22" height="19.76" rx="8.92" ry="8.92"/><rect x="162.8" y="262.28" width="51.91" height="19.76" rx="8.92" ry="8.92"/><rect x="360.67" y="262.28" width="91.04" height="19.76" rx="8.92" ry="8.92"/><rect x="455.47" y="262.28" width="34.61" height="19.76" rx="8.92" ry="8.92"/><rect x="84.3" y="296.62" width="43.89" height="19.76" rx="8.92" ry="8.92"/><rect x="132.45" y="296.62" width="28.84" height="19.76" rx="8.92" ry="8.92"/><rect x="167.06" y="296.62" width="53.67" height="19.76" rx="8.92" ry="8.92"/><rect x="409.57" y="296.62" width="82.01" height="19.76" rx="8.92" ry="8.92"/><rect x="360.67" y="296.62" width="44.39" height="19.76" rx="8.92" ry="8.92"/><rect x="91.07" y="330.95" width="73.98" height="19.76" rx="8.92" ry="8.92"/><rect x="167.06" y="330.95" width="70.97" height="19.76" rx="8.92" ry="8.92"/><rect x="103.11" y="365.28" width="98.06" height="19.76" rx="8.92" ry="8.92"/><rect x="202.42" y="365.28" width="42.38" height="19.76" rx="8.92" ry="8.92"/><rect x="246.81" y="365.28" width="42.38" height="19.76" rx="8.92" ry="8.92"/><rect x="223.74" y="399.62" width="127.15" height="19.76" rx="8.92" ry="8.92"/><rect x="121.42" y="399.62" width="99.31" height="19.76" rx="8.92" ry="8.92"/><rect x="150.51" y="433.95" width="124.39" height="19.76" rx="8.92" ry="8.92"/><rect x="276.91" y="433.95" width="34.11" height="19.76" rx="8.92" ry="8.92"/><rect x="313.77" y="433.95" width="39.37" height="19.76" rx="8.92" ry="8.92"/><rect x="356.66" y="433.95" width="48.4" height="19.76" rx="8.92" ry="8.92"/><rect x="190.38" y="468.29" width="208.66" height="19.76" rx="8.92" ry="8.92"/><rect x="404.81" y="468.29" width="34.11" height="19.76" rx="8.92" ry="8.92"/><rect x="423.12" y="502.61" width="38.37" height="19.76" rx="8.92" ry="8.92"/><rect x="246.81" y="502.62" width="50.66" height="19.76" rx="8.92" ry="8.92"/><rect x="301.73" y="502.62" width="116.11" height="19.76" rx="8.92" ry="8.92"/><rect x="310.76" y="536.95" width="73.98" height="19.76" rx="8.92" ry="8.92"/><rect x="387.5" y="536.95" width="89.03" height="19.76" rx="8.92" ry="8.92"/><rect x="348.38" y="571.29" width="59.69" height="19.76" rx="8.92" ry="8.92"/><rect x="411.58" y="571.29" width="74.73" height="19.76" rx="8.92" ry="8.92"/><rect x="392.27" y="605.62" width="99.31" height="19.76" rx="8.92" ry="8.92"/><rect x="359.92" y="605.62" width="30.09" height="19.76" rx="8.92" ry="8.92"/><rect x="360.42" y="639.96" width="52.92" height="19.76" rx="8.92" ry="8.92"/><rect x="416.09" y="639.96" width="28.84" height="19.76" rx="8.92" ry="8.92"/><rect x="449.2" y="639.96" width="42.38" height="19.76" rx="8.92" ry="8.92"/><rect x="356.66" y="674.29" width="33.35" height="19.76" rx="8.92" ry="8.92"/><rect x="392.02" y="674.29" width="96.55" height="19.76" rx="8.92" ry="8.92"/><rect x="332.58" y="708.62" width="79.25" height="19.76" rx="8.92" ry="8.92"/><rect x="416.09" y="708.62" width="66.46" height="19.76" rx="8.92" ry="8.92"/><rect x="138.72" y="605.62" width="26.33" height="19.76" rx="8.92" ry="8.92" transform="translate(303.78 1231.01) rotate(180)"/><rect x="167.31" y="605.62" width="33.86" height="19.76" rx="8.92" ry="8.92" transform="translate(368.48 1231.01) rotate(-180)"/><rect x="117.66" y="639.96" width="86.27" height="19.76" rx="8.92" ry="8.92" transform="translate(321.58 1299.67) rotate(180)"/><rect x="165.05" y="674.29" width="49.41" height="19.76" rx="8.92" ry="8.92" transform="translate(379.51 1368.34) rotate(-180)"/><rect x="117.66" y="674.29" width="42.63" height="19.76" rx="8.92" ry="8.92" transform="translate(277.95 1368.34) rotate(180)"/><rect x="146.75" y="708.62" width="180.07" height="19.76" rx="8.92" ry="8.92" transform="translate(473.56 1437.01) rotate(-180)"/><rect x="89.82" y="708.62" width="53.17" height="19.76" rx="8.92" ry="8.92" transform="translate(232.8 1437.01) rotate(-180)"/><rect x="79.28" y="674.3" width="33.86" height="19.76" rx="8.92" ry="8.92" transform="translate(192.43 1368.36) rotate(-180)"/><rect x="72.51" y="639.97" width="42.13" height="19.76" rx="8.92" ry="8.92" transform="translate(187.16 1299.7) rotate(-180)"/><rect x="69.5" y="605.64" width="66.21" height="19.76" rx="8.92" ry="8.92" transform="translate(205.22 1231.05) rotate(-180)"/><rect x="247.06" y="742.96" width="101.57" height="19.76" rx="8.92" ry="8.92"/><rect x="172.58" y="742.96" width="70.72" height="19.76" rx="8.92" ry="8.92"/><rect x="105.62" y="742.96" width="63.95" height="19.76" rx="8.92" ry="8.92"/><rect x="130.95" y="777.29" width="140.94" height="19.76" rx="8.92" ry="8.92"/><rect x="169.32" y="811.63" width="33.35" height="19.76" rx="8.92" ry="8.92"/><rect x="206.18" y="811.63" width="83.01" height="19.76" rx="8.92" ry="8.92"/><rect x="237.78" y="845.96" width="70.97" height="19.76" rx="8.92" ry="8.92"/><rect x="312.27" y="845.96" width="28.09" height="19.76" rx="8.92" ry="8.92"/><rect x="520.92" y="56.28" width="45.89" height="19.76" rx="8.92" ry="8.92"/><rect x="571.33" y="56.28" width="54.92" height="19.76" rx="8.92" ry="8.92"/><rect x="513.19" y="90.61" width="127.79" height="19.76" rx="8.92" ry="8.92"/><rect x="523.18" y="124.95" width="177.99" height="19.76" rx="8.92" ry="8.92"/><rect x="509.43" y="160.39" width="75.45" height="19.76" rx="8.92" ry="8.92"/><rect x="588.42" y="159.28" width="108.55" height="19.76" rx="8.92" ry="8.92"/><rect x="704.29" y="159.28" width="158.21" height="19.76" rx="8.92" ry="8.92"/><rect x="760.17" y="193.61" width="102.32" height="19.76" rx="8.92" ry="8.92"/><rect x="788.76" y="124.95" width="73.73" height="19.76" rx="8.92" ry="8.92"/><rect x="709.77" y="124.95" width="72.23" height="19.76" rx="8.92" ry="8.92"/><rect x="766.19" y="90.63" width="96.3" height="19.76" rx="8.92" ry="8.92"/><rect x="646.57" y="90.63" width="113.61" height="19.76" rx="8.92" ry="8.92"/><rect x="633.78" y="57.41" width="228.72" height="19.76" rx="8.92" ry="8.92"/><rect x="491.58" y="193.61" width="91.79" height="19.76" rx="8.92" ry="8.92"/><rect x="587.88" y="193.61" width="48.15" height="19.76" rx="8.92" ry="8.92"/><rect x="643.56" y="193.61" width="107.59" height="19.76" rx="8.92" ry="8.92"/><rect x="573.38" y="227.95" width="67.92" height="19.76" rx="8.92" ry="8.92"/><rect x="646.57" y="227.95" width="54.92" height="19.76" rx="8.92" ry="8.92"/><rect x="573.38" y="262.28" width="40.09" height="19.76" rx="8.92" ry="8.92"/><rect x="617.77" y="262.28" width="40.09" height="19.76" rx="8.92" ry="8.92"/><rect x="661.4" y="262.28" width="40.09" height="19.76" rx="8.92" ry="8.92"/><rect x="573.38" y="296.62" width="64.16" height="19.76" rx="8.92" ry="8.92"/><rect x="641.84" y="296.62" width="59.65" height="19.76" rx="8.92" ry="8.92"/><rect x="573.38" y="330.95" width="30.31" height="19.76" rx="8.92" ry="8.92"/><rect x="572.62" y="365.28" width="45.35" height="19.76" rx="8.92" ry="8.92"/><rect x="607.23" y="330.95" width="94.26" height="19.76" rx="8.92" ry="8.92"/><rect x="624.75" y="365.28" width="76.42" height="19.76" rx="8.92" ry="8.92"/><rect x="573.38" y="399.62" width="80.71" height="19.76" rx="8.92" ry="8.92"/><rect x="656.89" y="399.62" width="44.6" height="19.76" rx="8.92" ry="8.92"/><rect x="573.38" y="433.95" width="34.07" height="19.76" rx="8.92" ry="8.92"/><rect x="611.75" y="433.95" width="34.07" height="19.76" rx="8.92" ry="8.92"/><rect x="650.12" y="433.95" width="51.37" height="19.76" rx="8.92" ry="8.92"/><rect x="573.38" y="468.29" width="127.79" height="19.76" rx="8.92" ry="8.92"/><rect x="573.38" y="502.62" width="40.09" height="19.76" rx="8.92" ry="8.92"/><rect x="616.26" y="502.62" width="85.23" height="19.76" rx="8.92" ry="8.92"/><rect x="573.38" y="536.95" width="61.15" height="19.76" rx="8.92" ry="8.92"/><rect x="637.33" y="536.95" width="64.16" height="19.76" rx="8.92" ry="8.92"/><rect x="573.38" y="571.29" width="89.74" height="19.76" rx="8.92" ry="8.92"/><rect x="666.67" y="571.29" width="34.82" height="19.76" rx="8.92" ry="8.92"/><rect x="573.38" y="605.62" width="38.58" height="19.76" rx="8.92" ry="8.92"/><rect x="615.51" y="605.62" width="46.11" height="19.76" rx="8.92" ry="8.92"/><rect x="664.41" y="605.62" width="37.08" height="19.76" rx="8.92" ry="8.92"/><rect x="573.38" y="639.96" width="110.06" height="19.76" rx="8.92" ry="8.92"/><rect x="686.23" y="639.96" width="15.26" height="19.76" rx="7.08" ry="7.08"/><rect x="573.38" y="674.29" width="34.07" height="19.76" rx="8.92" ry="8.92"/><rect x="609.49" y="674.29" width="92" height="19.76" rx="8.92" ry="8.92"/><rect x="669.14" y="708.62" width="32.03" height="19.76" rx="8.92" ry="8.92"/><rect x="572.84" y="708.62" width="64.7" height="19.76" rx="8.92" ry="8.92"/><rect x="640.55" y="708.62" width="26.33" height="19.76" rx="8.92" ry="8.92"/><rect x="573.38" y="742.96" width="79.21" height="19.76" rx="8.92" ry="8.92"/><rect x="656.89" y="742.96" width="44.6" height="19.76" rx="8.92" ry="8.92"/><rect x="573.38" y="777.29" width="127.79" height="19.76" rx="8.92" ry="8.92"/><rect x="573.38" y="811.63" width="44.6" height="19.76" rx="8.92" ry="8.92"/><rect x="620.02" y="811.63" width="44.6" height="19.76" rx="8.92" ry="8.92"/><rect x="666.67" y="811.63" width="34.82" height="19.76" rx="8.92" ry="8.92"/><rect x="573.38" y="845.96" width="79.21" height="19.76" rx="8.92" ry="8.92"/><rect x="654.63" y="845.96" width="46.86" height="19.76" rx="8.92" ry="8.92"/><rect x="350.89" y="743.49" width="120.33" height="19.76" rx="8.92" ry="8.92"/><rect x="405.06" y="777.83" width="46.6" height="19.76" rx="8.92" ry="8.92"/><rect x="274.15" y="777.83" width="29.34" height="19.76" rx="8.92" ry="8.92"/><rect x="306.5" y="777.83" width="91.04" height="19.76" rx="8.92" ry="8.92"/><rect x="342.61" y="812.16" width="75.19" height="19.76" rx="8.92" ry="8.92"/><rect x="293.71" y="812.16" width="43.64" height="19.76" rx="8.92" ry="8.92"/></g><g><rect class="d" x="218.01" y="45.36" width="121.86" height="19.76" rx="8.92" ry="8.92"/><rect class="g" x="345.73" y="45.36" width="51.5" height="19.76" rx="8.92" ry="8.92"/><rect class="c" x="404.62" y="45.36" width="95.85" height="19.76" rx="8.92" ry="8.92"/><rect class="c" x="146.12" y="79.69" width="57.61" height="19.76" rx="8.92" ry="8.92"/><rect class="b" x="208.84" y="79.69" width="83.62" height="19.76" rx="8.92" ry="8.92"/><rect class="f" x="296.79" y="79.69" width="197.57" height="19.76" rx="8.92" ry="8.92"/><rect class="f" x="106.35" y="114.01" width="101.21" height="19.76" rx="8.92" ry="8.92"/><rect class="d" x="215.72" y="114.01" width="212.87" height="19.76" rx="8.92" ry="8.92"/><rect class="g" x="433.68" y="114.01" width="55.32" height="19.76" rx="8.92" ry="8.92"/><rect class="b" x="85.7" y="148.34" width="403.3" height="19.76" rx="8.92" ry="8.92"/><rect class="d" x="74.23" y="182.67" width="46.14" height="19.76" rx="8.92" ry="8.92"/><rect class="g" x="125.73" y="182.67" width="99.42" height="19.76" rx="8.92" ry="8.92"/><rect class="b" x="99.73" y="216.99" width="101.72" height="19.76" rx="8.92" ry="8.92"/><rect class="c" x="65.31" y="216.99" width="29.06" height="19.76" rx="8.92" ry="8.92"/><rect class="f" x="335.28" y="216.99" width="41.3" height="19.76" rx="8.92" ry="8.92"/><rect class="d" x="378.87" y="216.99" width="47.42" height="19.76" rx="8.92" ry="8.92"/><rect class="g" x="428.59" y="216.99" width="41.3" height="19.76" rx="8.92" ry="8.92"/><rect class="c" x="311.57" y="182.68" width="152.96" height="19.76" rx="8.92" ry="8.92"/><rect class="f" x="62" y="251.32" width="71.38" height="19.76" rx="8.92" ry="8.92"/><rect class="d" x="141.79" y="251.32" width="52.77" height="19.76" rx="8.92" ry="8.92"/><rect class="g" x="342.93" y="251.32" width="92.54" height="19.76" rx="8.92" ry="8.92"/><rect class="c" x="439.29" y="251.32" width="35.18" height="19.76" rx="8.92" ry="8.92"/><rect class="g" x="62" y="285.65" width="44.61" height="19.76" rx="8.92" ry="8.92"/><rect class="c" x="110.94" y="285.65" width="29.32" height="19.76" rx="8.92" ry="8.92"/><rect class="b" x="146.12" y="285.65" width="54.56" height="19.76" rx="8.92" ry="8.92"/><rect class="d" x="392.64" y="285.65" width="83.36" height="19.76" rx="8.92" ry="8.92"/><rect class="f" x="342.93" y="285.65" width="45.12" height="19.76" rx="8.92" ry="8.92"/><rect class="b" x="68.88" y="319.98" width="75.2" height="19.76" rx="8.92" ry="8.92"/><rect class="f" x="146.12" y="319.98" width="72.15" height="19.76" rx="8.92" ry="8.92"/><rect class="d" x="81.12" y="354.3" width="99.68" height="19.76" rx="8.92" ry="8.92"/><rect class="g" x="182.07" y="354.3" width="43.08" height="19.76" rx="8.92" ry="8.92"/><rect class="c" x="227.19" y="354.3" width="43.08" height="19.76" rx="8.92" ry="8.92"/><rect class="b" x="203.74" y="388.63" width="129.25" height="19.76" rx="8.92" ry="8.92"/><rect class="c" x="99.73" y="388.63" width="100.95" height="19.76" rx="8.92" ry="8.92"/><rect class="f" x="129.3" y="422.96" width="126.45" height="19.76" rx="8.92" ry="8.92"/><rect class="d" x="257.78" y="422.96" width="34.67" height="19.76" rx="8.92" ry="8.92"/><rect class="g" x="295.26" y="422.96" width="40.02" height="19.76" rx="8.92" ry="8.92"/><rect class="c" x="338.85" y="422.96" width="49.2" height="19.76" rx="8.92" ry="8.92"/><rect class="d" x="169.83" y="457.28" width="212.1" height="19.76" rx="8.92" ry="8.92"/><rect class="g" x="387.8" y="457.28" width="34.67" height="19.76" rx="8.92" ry="8.92"/><rect class="g" x="406.41" y="491.6" width="39" height="19.76" rx="8.92" ry="8.92"/><rect class="f" x="227.19" y="491.61" width="51.5" height="19.76" rx="8.92" ry="8.92"/><rect class="d" x="283.02" y="491.61" width="118.03" height="19.76" rx="8.92" ry="8.92"/><rect class="b" x="292.2" y="525.94" width="75.2" height="19.76" rx="8.92" ry="8.92"/><rect class="f" x="370.21" y="525.94" width="90.5" height="19.76" rx="8.92" ry="8.92"/><rect class="c" x="330.44" y="560.27" width="60.67" height="19.76" rx="8.92" ry="8.92"/><rect class="b" x="394.68" y="560.27" width="75.97" height="19.76" rx="8.92" ry="8.92"/><rect class="g" x="375.05" y="594.59" width="100.95" height="19.76" rx="8.92" ry="8.92"/><rect class="d" x="342.16" y="594.59" width="30.59" height="19.76" rx="8.92" ry="8.92"/><rect class="c" x="342.67" y="628.92" width="53.79" height="19.76" rx="8.92" ry="8.92"/><rect class="b" x="399.27" y="628.92" width="29.32" height="19.76" rx="8.92" ry="8.92"/><rect class="f" x="432.92" y="628.92" width="43.08" height="19.76" rx="8.92" ry="8.92"/><rect class="g" x="338.85" y="663.25" width="33.91" height="19.76" rx="8.92" ry="8.92"/><rect class="c" x="374.8" y="663.25" width="98.15" height="19.76" rx="8.92" ry="8.92"/><rect class="f" x="314.38" y="697.57" width="80.56" height="19.76" rx="8.92" ry="8.92"/><rect class="d" x="399.27" y="697.57" width="67.56" height="19.76" rx="8.92" ry="8.92"/><rect class="b" x="117.32" y="594.59" width="26.77" height="19.76" rx="8.92" ry="8.92" transform="translate(261.4 1208.94) rotate(180)"/><rect class="f" x="146.38" y="594.59" width="34.42" height="19.76" rx="8.92" ry="8.92" transform="translate(327.17 1208.94) rotate(-180)"/><rect class="g" x="95.9" y="628.92" width="87.7" height="19.76" rx="8.92" ry="8.92" transform="translate(279.5 1277.6) rotate(180)"/><rect class="d" x="144.08" y="663.25" width="50.22" height="19.76" rx="8.92" ry="8.92" transform="translate(338.39 1346.25) rotate(-180)"/><rect class="f" x="95.9" y="663.25" width="43.34" height="19.76" rx="8.92" ry="8.92" transform="translate(235.14 1346.25) rotate(180)"/><rect class="b" x="125.47" y="697.57" width="183.04" height="19.76" rx="8.92" ry="8.92" transform="translate(433.99 1414.91) rotate(-180)"/><rect class="c" x="67.6" y="697.57" width="54.05" height="19.76" rx="8.92" ry="8.92" transform="translate(189.25 1414.91) rotate(-180)"/><rect class="b" x="56.9" y="663.25" width="34.42" height="19.76" rx="8.92" ry="8.92" transform="translate(148.21 1346.27) rotate(-180)"/><rect class="d" x="50.01" y="628.93" width="42.83" height="19.76" rx="8.92" ry="8.92" transform="translate(142.86 1277.63) rotate(-180)"/><rect class="c" x="46.95" y="594.62" width="67.3" height="19.76" rx="8.92" ry="8.92" transform="translate(161.21 1208.99) rotate(-180)"/><rect class="d" x="227.45" y="731.9" width="103.25" height="19.76" rx="8.92" ry="8.92"/><rect class="f" x="151.73" y="731.9" width="71.89" height="19.76" rx="8.92" ry="8.92"/><rect class="b" x="83.66" y="731.9" width="65.01" height="19.76" rx="8.92" ry="8.92"/><rect class="g" x="109.41" y="766.23" width="143.27" height="19.76" rx="8.92" ry="8.92"/><rect class="c" x="148.42" y="800.56" width="33.91" height="19.76" rx="8.92" ry="8.92"/><rect class="b" x="185.89" y="800.56" width="84.38" height="19.76" rx="8.92" ry="8.92"/><rect class="g" x="218.01" y="834.88" width="72.15" height="19.76" rx="8.92" ry="8.92"/><rect class="c" x="293.73" y="834.88" width="28.55" height="19.76" rx="8.92" ry="8.92"/><rect class="b" x="505.83" y="45.36" width="46.65" height="19.76" rx="8.92" ry="8.92"/><rect class="f" x="557.07" y="45.36" width="55.83" height="19.76" rx="8.92" ry="8.92"/><rect class="d" x="497.97" y="79.69" width="129.9" height="19.76" rx="8.92" ry="8.92"/><rect class="c" x="508.12" y="114.01" width="180.93" height="19.76" rx="8.92" ry="8.92"/><rect class="f" x="494.14" y="149.45" width="76.69" height="19.76" rx="8.92" ry="8.92"/><rect class="d" x="574.45" y="148.34" width="110.35" height="19.76" rx="8.92" ry="8.92"/><rect class="g" x="692.22" y="148.34" width="160.82" height="19.76" rx="8.92" ry="8.92"/><rect class="g" x="749.03" y="182.66" width="104.01" height="19.76" rx="8.92" ry="8.92"/><rect class="f" x="778.1" y="114.02" width="74.95" height="19.76" rx="8.92" ry="8.92"/><rect class="b" x="697.79" y="114.02" width="73.42" height="19.76" rx="8.92" ry="8.92"/><rect class="c" x="755.15" y="79.7" width="97.89" height="19.76" rx="8.92" ry="8.92"/><rect class="g" x="633.55" y="79.7" width="115.48" height="19.76" rx="8.92" ry="8.92"/><rect class="d" x="620.55" y="46.49" width="232.5" height="19.76" rx="8.92" ry="8.92"/><rect class="b" x="476" y="182.67" width="93.3" height="19.76" rx="8.92" ry="8.92"/><rect class="f" x="573.9" y="182.67" width="48.95" height="19.76" rx="8.92" ry="8.92"/><rect class="d" x="630.49" y="182.67" width="109.37" height="19.76" rx="8.92" ry="8.92"/><rect class="c" x="559.15" y="216.99" width="69.05" height="19.76" rx="8.92" ry="8.92"/><rect class="b" x="633.55" y="216.99" width="55.83" height="19.76" rx="8.92" ry="8.92"/><rect class="b" x="559.15" y="251.32" width="40.75" height="19.76" rx="8.92" ry="8.92"/><rect class="f" x="604.27" y="251.32" width="40.75" height="19.76" rx="8.92" ry="8.92"/><rect class="d" x="648.63" y="251.32" width="40.75" height="19.76" rx="8.92" ry="8.92"/><rect class="g" x="559.15" y="285.65" width="65.22" height="19.76" rx="8.92" ry="8.92"/><rect class="c" x="628.75" y="285.65" width="60.63" height="19.76" rx="8.92" ry="8.92"/><rect class="d" x="559.15" y="319.98" width="30.81" height="19.76" rx="8.92" ry="8.92"/><rect class="b" x="558.38" y="354.3" width="46.1" height="19.76" rx="8.92" ry="8.92"/><rect class="g" x="593.57" y="319.98" width="95.81" height="19.76" rx="8.92" ry="8.92"/><rect class="f" x="611.37" y="354.3" width="77.68" height="19.76" rx="8.92" ry="8.92"/><rect class="f" x="559.15" y="388.63" width="82.05" height="19.76" rx="8.92" ry="8.92"/><rect class="d" x="644.04" y="388.63" width="45.34" height="19.76" rx="8.92" ry="8.92"/><rect class="b" x="559.15" y="422.96" width="34.63" height="19.76" rx="8.92" ry="8.92"/><rect class="f" x="598.15" y="422.96" width="34.63" height="19.76" rx="8.92" ry="8.92"/><rect class="d" x="637.16" y="422.96" width="52.22" height="19.76" rx="8.92" ry="8.92"/><rect class="c" x="559.15" y="457.28" width="129.9" height="19.76" rx="8.92" ry="8.92"/><rect class="c" x="559.15" y="491.61" width="40.75" height="19.76" rx="8.92" ry="8.92"/><rect class="b" x="602.74" y="491.61" width="86.64" height="19.76" rx="8.92" ry="8.92"/><rect class="d" x="559.15" y="525.94" width="62.16" height="19.76" rx="8.92" ry="8.92"/><rect class="g" x="624.16" y="525.94" width="65.22" height="19.76" rx="8.92" ry="8.92"/><rect class="f" x="559.15" y="560.27" width="91.23" height="19.76" rx="8.92" ry="8.92"/><rect class="d" x="653.98" y="560.27" width="35.4" height="19.76" rx="8.92" ry="8.92"/><rect class="c" x="559.15" y="594.59" width="39.22" height="19.76" rx="8.92" ry="8.92"/><rect class="b" x="601.98" y="594.59" width="46.87" height="19.76" rx="8.92" ry="8.92"/><rect class="f" x="651.69" y="594.59" width="37.69" height="19.76" rx="8.92" ry="8.92"/><rect class="d" x="559.15" y="628.92" width="111.88" height="19.76" rx="8.92" ry="8.92"/><rect class="g" x="673.87" y="628.92" width="15.51" height="19.76" rx="7.08" ry="7.08"/><rect class="b" x="559.15" y="663.25" width="34.63" height="19.76" rx="8.92" ry="8.92"/><rect class="f" x="595.86" y="663.25" width="93.52" height="19.76" rx="8.92" ry="8.92"/><rect class="b" x="656.49" y="697.57" width="32.56" height="19.76" rx="8.92" ry="8.92"/><rect class="g" x="558.6" y="697.57" width="65.77" height="19.76" rx="8.92" ry="8.92"/><rect class="c" x="627.43" y="697.57" width="26.77" height="19.76" rx="8.92" ry="8.92"/><rect class="c" x="559.15" y="731.9" width="80.52" height="19.76" rx="8.92" ry="8.92"/><rect class="b" x="644.04" y="731.9" width="45.34" height="19.76" rx="8.92" ry="8.92"/><rect class="d" x="559.15" y="766.23" width="129.9" height="19.76" rx="8.92" ry="8.92"/><rect class="g" x="559.15" y="800.56" width="45.34" height="19.76" rx="8.92" ry="8.92"/><rect class="c" x="606.57" y="800.56" width="45.34" height="19.76" rx="8.92" ry="8.92"/><rect class="b" x="653.98" y="800.56" width="35.4" height="19.76" rx="8.92" ry="8.92"/><rect class="b" x="559.15" y="834.88" width="80.52" height="19.76" rx="8.92" ry="8.92"/><rect class="f" x="641.75" y="834.88" width="47.63" height="19.76" rx="8.92" ry="8.92"/><rect class="g" x="332.99" y="732.44" width="122.32" height="19.76" rx="8.92" ry="8.92"/><rect class="f" x="388.05" y="766.77" width="47.37" height="19.76" rx="8.92" ry="8.92"/><rect class="c" x="254.98" y="766.77" width="29.83" height="19.76" rx="8.92" ry="8.92"/><rect class="b" x="287.86" y="766.77" width="92.54" height="19.76" rx="8.92" ry="8.92"/><rect class="d" x="324.57" y="801.09" width="76.43" height="19.76" rx="8.92" ry="8.92"/><rect class="f" x="274.86" y="801.09" width="44.36" height="19.76" rx="8.92" ry="8.92"/></g></svg>